<svg width="318" height="213" viewBox="0 0 318 213" fill="none" xmlns="http://www.w3.org/2000/svg">
<g clip-path="url(#clip0_1660_2257)">
<path d="M61.4458 159.948C61.4458 159.948 75.7001 192.718 111.937 203.411C148.173 214.105 186.757 199.847 218.357 189.096C249.957 178.345 266.558 150.864 259.517 122.751C252.476 94.6374 225.856 96.6496 201.069 71.6409C176.281 46.7471 173.419 36.2836 139.071 28.9247C104.724 21.5658 67.0559 50.599 57.6103 91.7629C48.222 132.927 61.4458 159.948 61.4458 159.948Z" fill="#FF7F50"/>
<path opacity="0.9" d="M61.4458 159.948C61.4458 159.948 75.7001 192.718 111.937 203.411C148.173 214.105 186.757 199.847 218.357 189.096C249.957 178.345 266.558 150.864 259.517 122.751C252.476 94.6374 225.856 96.6496 201.069 71.6409C176.281 46.7471 173.419 36.2836 139.071 28.9247C104.724 21.5658 67.0559 50.599 57.6103 91.7629C48.222 132.927 61.4458 159.948 61.4458 159.948Z" fill="white"/>
<path d="M261.614 104.317C261.614 104.317 277.171 105.886 285.052 115.574C285.052 115.574 293.407 104.317 308.353 104.59C312.701 99.3364 315.282 92.5821 315.282 85.2137C315.282 68.4303 301.763 54.7852 285.052 54.7852C268.34 54.7852 254.753 68.362 254.753 85.1455C254.821 92.4456 257.402 99.1317 261.614 104.317Z" fill="#FF7F50"/>
<path opacity="0.5" d="M261.614 104.317C261.614 104.317 277.171 105.886 285.052 115.574C285.052 115.574 293.407 104.317 308.353 104.59C312.701 99.3364 315.282 92.5821 315.282 85.2137C315.282 68.4303 301.763 54.7852 285.052 54.7852C268.34 54.7852 254.753 68.362 254.753 85.1455C254.821 92.4456 257.402 99.1317 261.614 104.317Z" fill="white"/>
<path d="M284.576 56.9004L284.032 158.283H286.682L284.576 56.9004Z" fill="#939CAE"/>
<path d="M285.392 112.572C285.392 112.572 290.623 103.089 300.134 100.155C300.134 100.155 290.147 102.543 285.12 110.73L285.392 112.572Z" fill="#939CAE"/>
<path d="M285.392 85.6915C285.392 85.6915 290.623 76.2081 300.134 73.2744C300.134 73.2744 290.147 75.6623 285.12 83.8494L285.392 85.6915Z" fill="#939CAE"/>
<path d="M285.392 99.1319C285.392 99.1319 290.623 89.6485 300.134 86.7148C300.134 86.7148 290.147 89.1027 285.12 97.2898L285.392 99.1319Z" fill="#939CAE"/>
<path d="M284.576 92.5137C284.576 92.5137 279.481 83.0304 270.378 80.0967C270.378 80.0967 280.025 82.4846 284.848 90.6716L284.576 92.5137Z" fill="#939CAE"/>
<path d="M284.576 105.75C284.576 105.75 279.481 96.2667 270.378 93.333C270.378 93.333 280.025 95.7209 284.848 103.908L284.576 105.75Z" fill="#939CAE"/>
<path d="M6.79342 104.317C6.79342 104.317 22.3504 105.886 30.2307 115.574C30.2307 115.574 38.5866 104.317 53.5322 104.59C57.8799 99.3364 60.4614 92.5821 60.4614 85.2137C60.4614 68.4303 46.9425 54.7852 30.2307 54.7852C13.5868 54.7852 0 68.362 0 85.1455C0 92.4456 2.51357 99.1317 6.79342 104.317Z" fill="#FF7F50"/>
<path opacity="0.5" d="M6.79342 104.317C6.79342 104.317 22.3504 105.886 30.2307 115.574C30.2307 115.574 38.5866 104.317 53.5322 104.59C57.8799 99.3364 60.4614 92.5821 60.4614 85.2137C60.4614 68.4303 46.9425 54.7852 30.2307 54.7852C13.5868 54.7852 0 68.362 0 85.1455C0 92.4456 2.51357 99.1317 6.79342 104.317Z" fill="white"/>
<path d="M29.7544 56.9004L29.2109 158.283H31.8604L29.7544 56.9004Z" fill="#939CAE"/>
<path d="M30.5022 112.572C30.5022 112.572 35.7331 103.089 45.2439 100.155C45.2439 100.155 35.2576 102.543 30.2305 110.73L30.5022 112.572Z" fill="#939CAE"/>
<path d="M30.5022 85.6915C30.5022 85.6915 35.7331 76.2081 45.2439 73.2744C45.2439 73.2744 35.2576 75.6623 30.2305 83.8494L30.5022 85.6915Z" fill="#939CAE"/>
<path d="M30.5022 99.1319C30.5022 99.1319 35.7331 89.6485 45.2439 86.7148C45.2439 86.7148 35.2576 89.1027 30.2305 97.2898L30.5022 99.1319Z" fill="#939CAE"/>
<path d="M29.7549 92.5137C29.7549 92.5137 24.6598 83.0304 15.5566 80.0967C15.5566 80.0967 25.2033 82.4846 30.0266 90.6716L29.7549 92.5137Z" fill="#939CAE"/>
<path d="M29.7549 105.75C29.7549 105.75 24.6598 96.2667 15.5566 93.333C15.5566 93.333 25.2033 95.7209 30.0266 103.908L29.7549 105.75Z" fill="#939CAE"/>
<path d="M198.367 114.141C198.367 114.141 211.139 115.437 217.593 123.351C217.593 123.351 224.386 114.141 236.682 114.346C240.215 110.048 242.389 104.521 242.389 98.4492C242.389 84.7359 231.316 73.5469 217.593 73.5469C203.938 73.5469 192.797 84.6676 192.797 98.4492C192.797 104.385 194.903 109.843 198.367 114.141Z" fill="#FF7F50"/>
<path opacity="0.5" d="M198.367 114.141C198.367 114.141 211.139 115.437 217.593 123.351C217.593 123.351 224.386 114.141 236.682 114.346C240.215 110.048 242.389 104.521 242.389 98.4492C242.389 84.7359 231.316 73.5469 217.593 73.5469C203.938 73.5469 192.797 84.6676 192.797 98.4492C192.797 104.385 194.903 109.843 198.367 114.141Z" fill="white"/>
<path d="M217.118 75.3203L216.71 158.283H218.884L217.118 75.3203Z" fill="#939CAE"/>
<path d="M217.797 120.895C217.797 120.895 222.076 113.117 229.821 110.729C229.821 110.729 221.669 112.64 217.593 119.394L217.797 120.895Z" fill="#939CAE"/>
<path d="M217.797 98.858C217.797 98.858 222.076 91.0803 229.821 88.6924C229.821 88.6924 221.669 90.6027 217.593 97.357L217.797 98.858Z" fill="#939CAE"/>
<path d="M217.797 109.842C217.797 109.842 222.076 102.065 229.821 99.6768C229.821 99.6768 221.669 101.587 217.593 108.341L217.797 109.842Z" fill="#939CAE"/>
<path d="M217.185 104.453C217.185 104.453 213.041 96.675 205.568 94.2871C205.568 94.2871 213.449 96.1974 217.389 102.952L217.185 104.453Z" fill="#939CAE"/>
<path d="M217.185 115.3C217.185 115.3 213.041 107.523 205.568 105.135C205.568 105.135 213.449 107.045 217.389 113.799L217.185 115.3Z" fill="#939CAE"/>
<path d="M75.0677 114.141C75.0677 114.141 87.8393 115.437 94.2931 123.351C94.2931 123.351 101.086 114.141 113.383 114.346C116.915 110.048 119.089 104.521 119.089 98.4492C119.089 84.7359 108.016 73.5469 94.2931 73.5469C80.6383 73.5469 69.4971 84.6676 69.4971 98.4492C69.4971 104.385 71.603 109.843 75.0677 114.141Z" fill="#FF7F50"/>
<path opacity="0.5" d="M75.0677 114.141C75.0677 114.141 87.8393 115.437 94.2931 123.351C94.2931 123.351 101.086 114.141 113.383 114.346C116.915 110.048 119.089 104.521 119.089 98.4492C119.089 84.7359 108.016 73.5469 94.2931 73.5469C80.6383 73.5469 69.4971 84.6676 69.4971 98.4492C69.4971 104.385 71.603 109.843 75.0677 114.141Z" fill="white"/>
<path d="M93.8178 75.3203L93.4102 158.283H95.584L93.8178 75.3203Z" fill="#939CAE"/>
<path d="M94.4977 120.895C94.4977 120.895 98.7776 113.117 106.522 110.729C106.522 110.729 98.37 112.64 94.2939 119.394L94.4977 120.895Z" fill="#939CAE"/>
<path d="M94.4977 98.858C94.4977 98.858 98.7776 91.0803 106.522 88.6924C106.522 88.6924 98.37 90.6027 94.2939 97.357L94.4977 98.858Z" fill="#939CAE"/>
<path d="M94.4977 109.842C94.4977 109.842 98.7776 102.065 106.522 99.6768C106.522 99.6768 98.37 101.587 94.2939 108.341L94.4977 109.842Z" fill="#939CAE"/>
<path d="M93.8179 104.453C93.8179 104.453 89.6739 96.675 82.2012 94.2871C82.2012 94.2871 90.0815 96.1974 94.0217 102.952L93.8179 104.453Z" fill="#939CAE"/>
<path d="M93.8179 115.3C93.8179 115.3 89.6739 107.523 82.2012 105.135C82.2012 105.135 90.0815 107.045 94.0217 113.799L93.8179 115.3Z" fill="#939CAE"/>
<path d="M11.4805 158.624H304.617" stroke="#263238" stroke-width="1.0474" stroke-miterlimit="10"/>
<path opacity="0.3" d="M91.5071 191.578C91.5071 193.624 79.0072 195.262 63.5182 195.262C48.0971 195.262 35.5293 193.624 35.5293 191.578C35.5293 189.531 48.0292 187.894 63.5182 187.894C79.0072 187.894 91.5071 189.531 91.5071 191.578Z" fill="#2D2F34"/>
<path opacity="0.3" d="M150.067 191.578C150.067 193.624 137.567 195.262 122.078 195.262C106.657 195.262 94.0889 193.624 94.0889 191.578C94.0889 189.531 106.589 187.894 122.078 187.894C137.567 187.894 150.067 189.531 150.067 191.578Z" fill="#2D2F34"/>
<path opacity="0.3" d="M227.648 191.578C227.648 193.624 215.148 195.262 199.659 195.262C184.238 195.262 171.67 193.624 171.67 191.578C171.67 189.531 184.17 187.894 199.659 187.894C215.148 187.894 227.648 189.531 227.648 191.578Z" fill="#2D2F34"/>
<path opacity="0.3" d="M292.456 191.578C292.456 193.624 279.956 195.262 264.467 195.262C248.978 195.262 236.479 193.624 236.479 191.578C236.479 189.531 248.978 187.894 264.467 187.894C279.956 187.894 292.456 189.531 292.456 191.578Z" fill="#2D2F34"/>
<path d="M202.716 83.9863C202.716 83.9863 201.561 88.7621 201.561 89.5808C201.561 90.3995 201.425 91.0818 201.425 91.0818C201.425 91.0818 198.98 94.0155 199.319 94.8342C199.659 95.6529 200.95 96.3351 200.95 96.3351C200.95 96.3351 202.241 101.111 203.531 101.452C204.822 101.793 207.607 101.93 207.607 101.93L208.083 105.887L214.605 104.932L212.974 98.9959L213.654 93.879C213.654 93.879 214.808 91.764 213.654 88.2845C212.499 84.805 210.053 84.6686 208.423 84.6686C206.792 84.6686 202.716 83.9863 202.716 83.9863Z" fill="white" stroke="#263238" stroke-width="1.0474" stroke-miterlimit="10" stroke-linecap="round" stroke-linejoin="round"/>
<path d="M205.637 81.5299C205.637 81.5299 199.931 81.3934 200.067 82.8261C200.203 84.3271 206.113 86.3056 206.113 86.3056C206.113 86.3056 204.143 87.6019 205.162 88.8982C206.113 90.1945 208.423 91.3543 208.423 91.3543C208.423 91.3543 207.743 94.1516 208.762 94.288C209.713 94.4245 210.393 92.9917 210.529 92.5142C210.665 92.0366 212.499 92.173 212.974 93.4693C213.45 94.7656 213.45 95.5843 213.45 95.5843C213.45 95.5843 215.42 89.6487 215.76 87.0561C216.099 84.4636 208.762 81.5299 205.637 81.5299Z" fill="#263238" stroke="#263238" stroke-width="1.0474" stroke-miterlimit="10" stroke-linecap="round" stroke-linejoin="round"/>
<path d="M209.306 94.3561C209.306 94.3561 211.276 89.9897 212.431 92.1047C213.586 94.2197 213.11 96.4711 211.955 96.744C210.8 96.9487 209.849 97.2216 209.849 97.2216" fill="white"/>
<path d="M209.306 94.3561C209.306 94.3561 211.276 89.9897 212.431 92.1047C213.586 94.2197 213.11 96.4711 211.955 96.744C210.8 96.9487 209.849 97.2216 209.849 97.2216" stroke="#263238" stroke-width="1.0474" stroke-miterlimit="10" stroke-linecap="round" stroke-linejoin="round"/>
<path d="M201.221 139.93C200.882 140.272 195.651 151.597 195.039 155.349C194.36 159.102 190.148 181.616 189.944 182.571C189.809 183.527 180.773 185.505 180.162 185.71C179.483 185.846 180.841 187.688 182.743 188.166C184.713 188.643 190.284 190.963 191.575 189.667C192.866 188.371 194.7 181.002 195.175 180.115C195.651 179.297 204.89 157.533 204.89 157.533C204.89 157.533 209.577 147.094 210.596 146.071C211.547 145.116 209.441 140.681 208.626 139.385C207.811 138.088 203.531 137.27 201.221 139.93Z" fill="#263238" stroke="#263238" stroke-width="1.0474" stroke-miterlimit="10" stroke-linecap="round" stroke-linejoin="round"/>
<path d="M200.27 140.067C200.27 140.067 202.58 151.051 203.735 155.008C204.89 158.965 207.2 162.377 208.49 164.219C209.781 165.993 216.167 181.957 216.167 181.957L217.118 184.414C217.118 184.414 216.778 185.369 215.012 186.733C213.246 188.029 208.151 190.213 209.442 190.69C210.732 191.168 215.963 191.168 218.409 191.031C220.854 190.895 222.96 189.53 223.979 188.439C224.931 187.279 222.349 184.004 222.349 183.322C222.349 182.64 216.643 162.65 216.303 161.694C215.963 160.739 214.333 153.644 214.333 153.644V145.593C214.333 145.593 215.148 144.092 215.148 140.817C215.148 137.543 212.702 136.86 212.702 136.86L199.319 138.157L200.27 140.067Z" fill="#263238" stroke="#263238" stroke-width="1.0474" stroke-miterlimit="10" stroke-linecap="round" stroke-linejoin="round"/>
<path d="M199.115 139.112C199.115 139.112 199.455 141.909 200.406 142.046C201.357 142.182 211.547 144.979 215.895 141.704C215.895 141.704 216.71 139.248 216.235 138.566C215.759 137.884 214.604 138.225 208.694 138.225C202.852 138.293 199.115 138.293 199.115 139.112Z" fill="#FF7F50" stroke="#263238" stroke-width="1.0474" stroke-miterlimit="10" stroke-linecap="round" stroke-linejoin="round"/>
<path d="M214.129 102.339C214.129 102.339 208.083 103.158 205.501 105.818C202.92 108.411 200.61 113.187 199.455 117.621C198.3 122.056 197.485 138.294 199.116 139.112C200.746 139.931 214.469 140.75 216.779 139.795C219.088 138.84 216.643 131.13 216.643 128.128C216.643 125.194 219.224 115.165 218.749 109.571C218.273 103.976 214.129 102.339 214.129 102.339Z" fill="#FF7F50" stroke="#263238" stroke-width="1.0474" stroke-miterlimit="10" stroke-linecap="round" stroke-linejoin="round"/>
<path d="M192.322 119.395C192.254 112.64 189.537 106.909 185.868 104.385V103.021L175.814 103.157C170.176 103.225 165.624 110.662 165.76 119.736C165.828 128.81 170.515 136.178 176.154 136.11L186.208 135.973V134.609C189.741 131.948 192.39 126.149 192.322 119.395Z" fill="#263238" stroke="#263238" stroke-width="1.0474" stroke-miterlimit="10" stroke-linecap="round" stroke-linejoin="round"/>
<path d="M196.874 119.327C196.806 112.231 194.088 106.159 190.216 103.567V102.134L185.936 102.202C179.958 102.27 175.271 110.048 175.339 119.6C175.407 129.151 180.366 136.861 186.276 136.792L190.556 136.724V135.291C194.36 132.562 196.942 126.422 196.874 119.327Z" fill="white" stroke="#263238" stroke-width="1.0474" stroke-miterlimit="10" stroke-linecap="round" stroke-linejoin="round"/>
<path d="M201.153 119.326C201.221 128.878 196.534 136.655 190.555 136.724C184.577 136.792 179.686 129.082 179.618 119.531C179.55 109.979 184.237 102.201 190.216 102.133C196.126 102.065 201.085 109.775 201.153 119.326Z" fill="#737373" stroke="#263238" stroke-width="1.0474" stroke-miterlimit="10" stroke-linecap="round" stroke-linejoin="round"/>
<path d="M198.708 118.985C198.776 123.488 196.534 127.24 193.681 127.24C190.895 127.24 188.518 123.624 188.518 119.121C188.518 114.619 190.691 110.866 193.545 110.866C196.33 110.798 198.64 114.482 198.708 118.985Z" fill="#263238" stroke="#263238" stroke-width="1.0474" stroke-miterlimit="10" stroke-linecap="round" stroke-linejoin="round"/>
<path d="M278.734 153.03C279.618 147.504 279.414 140.34 279.414 140.34C277.24 141.363 264.332 141.704 263.177 141.773C262.023 141.773 249.115 141.363 246.941 140.34C246.941 140.34 246.737 147.504 247.621 153.03C248.504 158.556 256.316 180.729 256.52 181.821C256.724 182.913 257.403 184.891 257.403 184.891C257.403 184.891 252.987 188.098 251.017 189.326C249.047 190.554 250.474 191.1 252.444 191.1C254.414 191.1 258.49 190.554 259.713 190.554C260.8 190.554 262.702 189.599 263.177 189.326C263.653 189.53 265.555 190.554 266.642 190.554C267.865 190.554 272.009 191.1 273.911 191.1C275.881 191.1 277.308 190.554 275.338 189.326C273.368 188.098 268.952 184.891 268.952 184.891C268.952 184.891 269.631 182.913 269.835 181.821C270.039 180.729 277.851 158.556 278.734 153.03Z" fill="#263238" stroke="#263238" stroke-width="1.0474" stroke-miterlimit="10" stroke-linecap="round" stroke-linejoin="round"/>
<path d="M260.528 105.613C260.528 105.613 253.667 107.865 250.066 110.116C246.533 112.368 242.933 124.648 242.933 125.126C242.933 125.603 242.118 127.65 242.118 127.65C242.118 127.65 238.585 126.831 237.838 129.765C237.159 132.767 241.37 136.588 243.68 136.656C245.922 136.792 246.669 136.042 246.669 136.042C246.669 136.042 245.243 138.907 245.854 140.067C246.466 141.227 251.425 145.662 261.275 145.525C271.126 145.389 278.259 143.751 279.278 142.319C280.365 140.886 280.433 137.884 280.433 137.884C280.433 137.884 284.101 136.929 285.392 134.541C286.683 132.153 286.479 129.629 285.731 127.173C284.984 124.716 281.316 117.416 278.87 113.323C276.357 109.297 271.194 106.978 268.68 106.296C266.234 105.75 262.158 105.613 260.528 105.613Z" fill="#FF7F50" stroke="#263238" stroke-width="1.0474" stroke-miterlimit="10" stroke-linecap="round" stroke-linejoin="round"/>
<path d="M262.565 115.642C263.584 115.301 266.642 112.572 267.864 109.775C268.476 108.479 268.747 107.319 268.883 106.432C268.815 106.432 268.747 106.432 268.747 106.364C266.234 105.681 262.226 105.545 260.595 105.545C260.595 105.545 259.169 106.023 257.267 106.773C257.267 107.796 257.402 109.434 258.082 111.071C259.101 113.868 261.614 115.983 262.565 115.642Z" fill="white" stroke="#263238" stroke-width="1.0474" stroke-miterlimit="10" stroke-linecap="round" stroke-linejoin="round"/>
<path d="M273.911 121.236C273.911 121.236 276.764 136.451 279.957 138.02" stroke="#263238" stroke-width="1.0474" stroke-miterlimit="10" stroke-linecap="round" stroke-linejoin="round"/>
<path d="M246.602 136.11C246.602 136.11 250.134 122.669 250.406 121.373" stroke="#263238" stroke-width="1.0474" stroke-miterlimit="10" stroke-linecap="round" stroke-linejoin="round"/>
<path d="M278.531 128.06C278.531 128.06 276.561 128.469 276.561 129.902" stroke="#263238" stroke-width="1.0474" stroke-miterlimit="10" stroke-linecap="round" stroke-linejoin="round"/>
<path d="M245.039 128.332C245.039 128.332 247.213 129.765 247.009 131.948" stroke="#263238" stroke-width="1.0474" stroke-miterlimit="10" stroke-linecap="round" stroke-linejoin="round"/>
<path d="M259.713 190.554C260.8 190.554 262.702 189.599 263.178 189.326C263.653 189.531 265.555 190.554 266.642 190.554C267.865 190.554 272.009 191.1 273.911 191.1C275.881 191.1 277.308 190.554 275.338 189.326C273.64 188.235 270.039 185.642 269.156 185.028C267.05 186.938 262.906 186.461 262.906 186.461C262.906 186.461 261.683 186.256 260.392 185.915C259.17 185.574 257.335 184.823 257.335 184.823C257.335 184.823 252.92 188.03 250.95 189.258C248.979 190.486 250.406 191.032 252.376 191.032C254.346 191.032 258.49 190.554 259.713 190.554Z" fill="#FF7F50" stroke="#263238" stroke-width="1.0474" stroke-miterlimit="10" stroke-linecap="round" stroke-linejoin="round"/>
<path d="M262.905 184.891V153.712" stroke="white" stroke-width="1.0474" stroke-miterlimit="10" stroke-linecap="round" stroke-linejoin="round"/>
<path d="M263.177 189.325L262.905 186.392V184.891" stroke="#263238" stroke-width="1.0474" stroke-miterlimit="10" stroke-linecap="round" stroke-linejoin="round"/>
<path d="M260.46 152.62H265.623" stroke="white" stroke-width="1.0474" stroke-miterlimit="10" stroke-linecap="round" stroke-linejoin="round"/>
<path d="M253.735 87.7379C253.735 87.7379 250.066 89.9893 250.61 91.8996C251.153 93.8782 252.851 94.2193 252.444 95.3109C252.104 96.4025 250.745 97.0848 252.24 97.6988C253.735 98.3811 254.822 98.5175 254.822 98.5175C254.822 98.5175 256.18 103.225 258.49 104.112C260.8 104.931 264.876 104.385 267.729 104.044C270.582 103.703 271.601 101.519 271.873 100.496C272.145 99.4727 270.65 100.701 269.903 99.5409C269.156 98.4493 270.243 95.5156 271.126 93.0595C271.941 90.5351 269.427 85.8276 266.234 84.2584C263.042 82.6892 256.86 83.5761 253.735 87.7379Z" fill="#263238" stroke="#263238" stroke-width="1.0474" stroke-miterlimit="10" stroke-linecap="round" stroke-linejoin="round"/>
<path d="M259.917 103.907C259.917 103.907 259.102 106.636 258.966 108.683C258.83 110.73 260.528 112.981 262.294 112.845C264.061 112.708 265.623 109.16 265.827 107.387C266.031 105.613 265.216 100.837 265.216 100.837C265.216 100.837 262.498 100.973 261.411 101.929C260.392 102.884 259.917 103.907 259.917 103.907Z" fill="white" stroke="#263238" stroke-width="1.0474" stroke-miterlimit="10" stroke-linecap="round" stroke-linejoin="round"/>
<path d="M257.471 90.3301C257.471 90.3301 257.539 93.1273 260.324 95.7881C263.11 98.4489 266.167 99.4723 266.167 99.4723C266.167 99.4723 266.099 100.564 265.691 101.246C265.352 101.928 264.74 101.928 264.4 101.928C264.061 101.928 263.449 101.928 263.449 101.928C263.449 101.928 262.091 105.135 260.46 105.613C258.762 106.09 254.754 105.749 254.21 101.656C253.667 97.562 253.531 94.2189 254.007 93.4002C254.55 92.5815 257.471 90.3301 257.471 90.3301Z" fill="white" stroke="#263238" stroke-width="1.0474" stroke-miterlimit="10" stroke-linecap="round" stroke-linejoin="round"/>
<path d="M286.547 126.286C286.547 126.286 287.294 124.785 287.294 123.557C287.294 122.329 284.984 120.555 284.577 120.077C284.101 119.6 283.761 119.668 283.626 120.282C283.558 120.896 283.965 121.714 284.441 122.124C284.916 122.601 285.12 122.874 285.188 123.215C285.256 123.488 284.441 125.058 284.848 126.013C285.188 126.968 286.343 127.309 286.547 126.286Z" fill="white" stroke="#263238" stroke-width="1.0474" stroke-miterlimit="10" stroke-linecap="round" stroke-linejoin="round"/>
<path d="M194.563 119.326C194.563 119.326 204.55 122.533 210.596 130.038C216.642 137.542 220.582 136.451 228.055 133.995C235.528 131.47 238.381 122.533 248.707 130.038C259.033 137.542 261.139 140.408 269.699 136.11C278.258 131.811 282.878 121.441 290.69 125.057C298.503 128.605 294.97 146.821 295.65 155.759C296.329 164.696 295.31 186.869 297.076 189.735C298.842 192.6 316.981 190.417 316.981 190.417" stroke="#263238" stroke-width="3.1423" stroke-miterlimit="10" stroke-linecap="round" stroke-linejoin="round"/>
<path d="M213.314 107.387C213.314 107.387 211.344 104.112 208.355 104.999C205.23 105.886 203.667 110.389 202.92 113.118C202.173 115.915 201.697 118.917 200.406 121.51C200.406 121.51 194.496 121.441 191.235 120.486C187.974 119.531 183.83 117.757 183.83 117.757C183.83 117.757 182.676 116.12 181.86 115.779C181.045 115.438 178.939 114.824 178.735 115.301C178.6 115.779 181.181 117.416 181.181 117.416C181.181 117.416 176.29 118.098 175.814 118.644C175.339 119.122 179.279 120.759 179.279 120.759C179.279 120.759 180.773 121.237 184.374 120.35C184.374 120.35 197.553 128.742 200.135 129.697C202.784 130.652 204.211 130.993 205.977 127.513C207.743 124.034 213.722 115.438 214.605 112.026" fill="#FF7F50"/>
<path d="M213.314 107.387C213.314 107.387 211.344 104.112 208.355 104.999C205.23 105.886 203.667 110.389 202.92 113.118C202.173 115.915 201.697 118.917 200.406 121.51C200.406 121.51 194.496 121.441 191.235 120.486C187.974 119.531 183.83 117.757 183.83 117.757C183.83 117.757 182.676 116.12 181.86 115.779C181.045 115.438 178.939 114.824 178.735 115.301C178.6 115.779 181.181 117.416 181.181 117.416C181.181 117.416 176.29 118.098 175.814 118.644C175.339 119.122 179.279 120.759 179.279 120.759C179.279 120.759 180.773 121.237 184.374 120.35C184.374 120.35 197.553 128.742 200.135 129.697C202.784 130.652 204.211 130.993 205.977 127.513C207.743 124.034 213.722 115.438 214.605 112.026" stroke="#263238" stroke-width="1.0474" stroke-miterlimit="10" stroke-linecap="round" stroke-linejoin="round"/>
<path d="M187.295 119.053C185.393 118.303 183.83 117.689 183.83 117.689C183.83 117.689 182.676 116.051 181.86 115.71C181.045 115.369 178.939 114.755 178.735 115.233C178.6 115.71 181.181 117.348 181.181 117.348C181.181 117.348 176.29 118.03 175.814 118.576C175.339 119.053 179.279 120.691 179.279 120.691C179.279 120.691 180.773 121.168 184.374 120.281C184.374 120.281 185.121 120.759 186.208 121.441L187.295 119.053Z" fill="white" stroke="#263238" stroke-width="1.0474" stroke-miterlimit="10" stroke-linecap="round" stroke-linejoin="round"/>
<path d="M237.974 127.514C237.974 127.514 237.227 126.013 237.227 124.785C237.227 123.557 239.536 121.783 239.944 121.306C240.419 120.828 240.759 120.896 240.895 121.51C240.963 122.124 240.555 122.943 240.08 123.352C239.604 123.83 239.4 124.103 239.333 124.444C239.265 124.717 240.08 126.286 239.672 127.241C239.333 128.265 238.178 128.537 237.974 127.514Z" fill="white" stroke="#263238" stroke-width="1.0474" stroke-miterlimit="10" stroke-linecap="round" stroke-linejoin="round"/>
<path d="M239.604 123.762C239.604 123.762 237.702 127.309 238.789 128.537C239.876 129.765 240.962 125.672 241.166 124.58C241.37 123.42 240.283 122.329 239.604 123.762Z" fill="white" stroke="#263238" stroke-width="1.0474" stroke-miterlimit="10" stroke-linecap="round" stroke-linejoin="round"/>
<path d="M241.166 124.99C241.166 124.99 239.264 128.538 240.351 129.766C241.438 130.994 242.525 126.9 242.729 125.809C242.933 124.649 241.846 123.557 241.166 124.99Z" fill="white" stroke="#263238" stroke-width="1.0474" stroke-miterlimit="10" stroke-linecap="round" stroke-linejoin="round"/>
<path d="M242.865 125.331C242.865 125.331 240.962 128.879 242.049 130.107C243.136 131.335 244.223 127.241 244.427 126.15C244.631 124.99 243.544 123.898 242.865 125.331Z" fill="white" stroke="#263238" stroke-width="1.0474" stroke-miterlimit="10" stroke-linecap="round" stroke-linejoin="round"/>
<path d="M245.039 125.399C245.039 125.399 243.273 128.128 244.224 129.151C245.175 130.175 246.194 126.968 246.398 126.013C246.669 125.058 245.718 124.171 245.039 125.399Z" fill="white" stroke="#263238" stroke-width="1.0474" stroke-miterlimit="10" stroke-linecap="round" stroke-linejoin="round"/>
<path d="M285.324 123.966C285.324 123.966 287.226 127.514 286.139 128.742C285.052 129.97 283.965 125.876 283.761 124.785C283.558 123.557 284.645 122.465 285.324 123.966Z" fill="white" stroke="#263238" stroke-width="1.0474" stroke-miterlimit="10" stroke-linecap="round" stroke-linejoin="round"/>
<path d="M283.761 125.194C283.761 125.194 285.664 128.742 284.577 129.97C283.49 131.198 282.403 127.105 282.199 126.013C281.995 124.785 283.082 123.693 283.761 125.194Z" fill="white" stroke="#263238" stroke-width="1.0474" stroke-miterlimit="10" stroke-linecap="round" stroke-linejoin="round"/>
<path d="M282.063 125.467C282.063 125.467 283.965 129.014 282.878 130.242C281.791 131.471 280.704 127.377 280.501 126.285C280.229 125.126 281.316 124.034 282.063 125.467Z" fill="white" stroke="#263238" stroke-width="1.0474" stroke-miterlimit="10" stroke-linecap="round" stroke-linejoin="round"/>
<path d="M279.821 125.536C279.821 125.536 281.588 128.265 280.637 129.288C279.685 130.311 278.666 127.105 278.463 126.15C278.259 125.194 279.21 124.307 279.821 125.536Z" fill="white" stroke="#263238" stroke-width="1.0474" stroke-miterlimit="10" stroke-linecap="round" stroke-linejoin="round"/>
<path d="M46.127 164.423V168.312C46.127 168.312 44.1569 170.291 43.3417 173.497C42.5265 176.636 39.945 190.281 40.6244 190.622C41.3037 190.963 47.6895 192.464 49.7276 192.123C52.0373 191.782 54.0753 191.918 52.8525 190.622C51.6976 189.325 45.5156 185.71 45.5156 185.71C45.5156 185.71 52.309 175.817 53.8036 172.201C55.2982 168.585 55.5699 162.922 55.5699 162.922L46.4667 162.581L46.127 164.423Z" fill="white" stroke="#263238" stroke-width="1.0474" stroke-miterlimit="10" stroke-linecap="round" stroke-linejoin="round"/>
<path d="M49.7277 192.123C52.0374 191.782 54.0754 191.918 52.8526 190.622C51.6977 189.326 45.5157 185.71 45.5157 185.71L45.3119 187.143L40.8962 186.597C40.5565 188.848 40.4207 190.554 40.6924 190.69C41.3038 190.963 47.6896 192.396 49.7277 192.123Z" fill="#263238" stroke="#263238" stroke-width="1.0474" stroke-miterlimit="10" stroke-linecap="round" stroke-linejoin="round"/>
<path d="M68.4098 166.402L69.4288 168.312C69.4288 168.312 68.0022 170.564 69.0892 173.839C70.1082 177.113 72.6217 189.189 72.6217 189.94C72.6217 190.69 74.1163 191.1 75.3391 191.1C76.494 191.1 79.8907 191.304 80.3662 191.304C80.8418 191.304 84.2385 191.918 85.3934 191.168C86.5482 190.486 83.8988 189.053 82.1325 188.234C80.3662 187.415 76.494 185.3 76.494 185.3C76.494 185.3 77.4451 175.681 77.4451 171.451C77.4451 167.221 78.3961 165.788 77.1054 163.264C75.8146 160.671 67.7305 164.423 67.7305 164.423L68.4098 166.402Z" fill="white" stroke="#263238" stroke-width="1.0474" stroke-miterlimit="10" stroke-linecap="round" stroke-linejoin="round"/>
<path d="M82.1327 188.234C80.3664 187.416 76.4941 185.301 76.4941 185.301L76.0186 187.075L72.2822 187.757C72.486 188.917 72.6219 189.735 72.6219 189.872C72.6219 190.554 74.1165 191.032 75.3393 191.032C76.4941 191.032 79.8909 191.236 80.3664 191.236C80.8419 191.236 84.2386 191.85 85.3935 191.1C86.5484 190.486 83.899 189.053 82.1327 188.234Z" fill="#263238" stroke="#263238" stroke-width="1.0474" stroke-miterlimit="10" stroke-linecap="round" stroke-linejoin="round"/>
<path d="M62.16 88.2152C62.16 88.2152 60.6654 85.5544 59.035 83.7805C57.4046 81.9384 52.3774 82.0749 50.1356 84.4628C47.8938 86.9189 48.6411 91.1489 49.4563 92.3769C50.2715 93.605 51.9698 99.2677 51.9698 99.2677L52.3774 103.293L61.7524 106.636L59.8502 100.018C59.8502 100.018 63.4507 99.3359 63.7904 98.1761C64.0621 97.0845 63.179 93.1956 63.179 93.1956C63.179 93.1956 64.4018 92.3769 64.2659 91.6947C64.1301 91.0806 62.16 88.2152 62.16 88.2152Z" fill="white" stroke="#263238" stroke-width="1.0474" stroke-miterlimit="10" stroke-linecap="round" stroke-linejoin="round"/>
<path d="M51.358 92.582C51.358 92.582 52.9884 93.9465 53.8716 92.3773C54.7547 90.8081 55.4341 89.3071 55.4341 87.9426C55.4341 86.6463 52.1732 85.4865 54.3471 84.6678C56.521 83.7809 58.1514 85.7594 59.1025 83.7809C60.0536 81.8023 59.1705 81.5977 53.9395 81.5977C48.7086 81.5977 46.0592 84.2585 47.1461 87.5333C48.2331 90.8081 50.4069 94.5605 50.4069 94.5605L51.358 92.582Z" fill="#263238" stroke="#263238" stroke-width="1.0474" stroke-miterlimit="10" stroke-linecap="round" stroke-linejoin="round"/>
<path d="M62.4314 90.5351C62.4314 91.9678 61.2765 93.0594 59.9179 93.0594C58.4912 93.0594 57.4043 91.8996 57.4043 90.5351C57.4043 89.1023 58.5592 88.0107 59.9179 88.0107C61.2765 88.0107 62.4314 89.1706 62.4314 90.5351Z" stroke="#263238" stroke-width="1.0474" stroke-miterlimit="10" stroke-linecap="round" stroke-linejoin="round"/>
<path d="M62.0918 88.2838C62.3635 88.1473 62.7032 88.0791 63.0429 88.0791C64.3336 88.0791 65.4206 89.1707 65.4206 90.467C65.4206 91.3539 64.945 92.1726 64.1978 92.582" stroke="#263238" stroke-width="1.0474" stroke-miterlimit="10" stroke-linecap="round" stroke-linejoin="round"/>
<path d="M57.4045 90.5352L51.3584 92.5819" stroke="#263238" stroke-width="1.0474" stroke-miterlimit="10" stroke-linecap="round" stroke-linejoin="round"/>
<path d="M53.0565 93.8784C53.0565 93.8784 51.8337 91.354 50.6109 91.8316C49.3881 92.3092 49.9995 96.2663 51.2223 96.6756C52.4451 97.085 53.532 96.0616 53.532 96.0616C53.532 96.0616 54.5511 98.1766 55.7739 98.7906" fill="white"/>
<path d="M53.0565 93.8784C53.0565 93.8784 51.8337 91.354 50.6109 91.8316C49.3881 92.3092 49.9995 96.2663 51.2223 96.6756C52.4451 97.085 53.532 96.0616 53.532 96.0616C53.532 96.0616 54.5511 98.1766 55.7739 98.7906" stroke="#263238" stroke-width="1.0474" stroke-miterlimit="10" stroke-linecap="round" stroke-linejoin="round"/>
<path d="M45.1762 139.385L44.4289 149.073L42.1191 163.4C42.1191 163.4 47.418 167.562 52.3093 167.562C57.2005 167.562 58.5592 166.948 58.5592 166.948L61.3445 152.211L64.1298 167.698C64.1298 167.698 69.4966 166.811 73.1651 165.924C76.8335 165.037 80.1623 162.649 80.1623 162.649L72.8933 143.615L71.3308 133.79C71.3308 133.79 63.1787 134.541 58.2875 134.813C53.3962 135.086 46.8745 133.79 46.8745 133.79L45.1762 139.385Z" fill="#FF7F50" stroke="#263238" stroke-width="1.0474" stroke-miterlimit="10" stroke-linecap="round" stroke-linejoin="round"/>
<path d="M50.3392 100.633C50.3392 100.633 61.8881 104.658 65.4206 108.615C67.3907 110.798 69.6325 125.74 70.3798 129.356C71.195 133.04 72.5537 140.272 72.5537 140.272C72.5537 140.272 65.4886 143.478 60.0538 143.547C54.6191 143.683 44.1572 141.159 44.1572 141.159C44.1572 141.159 45.38 124.989 45.38 117.416C45.38 109.911 45.5159 104.999 46.7387 102.611C46.8067 102.679 48.8447 100.36 50.3392 100.633Z" fill="#263238" stroke="#263238" stroke-width="1.0474" stroke-miterlimit="10" stroke-linecap="round" stroke-linejoin="round"/>
<path d="M47.2819 142.387C47.2819 142.387 47.8933 152.962 47.2819 156.851C46.6705 160.739 45.04 164.151 45.04 164.151" stroke="#263238" stroke-width="1.0474" stroke-miterlimit="10" stroke-linecap="round" stroke-linejoin="round"/>
<path d="M47.5537 147.435C47.5537 147.435 50.4069 146.684 51.2901 143.137" stroke="#263238" stroke-width="1.0474" stroke-miterlimit="10" stroke-linecap="round" stroke-linejoin="round"/>
<path d="M42.7305 161.422C42.7305 161.422 48.9804 166.812 58.7629 164.833" stroke="#263238" stroke-width="1.0474" stroke-miterlimit="10" stroke-linecap="round" stroke-linejoin="round"/>
<path d="M63.8584 164.56C63.8584 164.56 74.1165 163.4 78.6681 160.398" stroke="#263238" stroke-width="1.0474" stroke-miterlimit="10" stroke-linecap="round" stroke-linejoin="round"/>
<path d="M109.849 95.7206C109.849 95.7206 108.83 96.4711 105.434 98.9955C101.969 101.52 104.686 105.34 104.686 105.34C104.686 105.34 102.241 105.75 98.9121 109.229C95.5833 112.709 100.407 118.713 104.822 119.668C109.306 120.623 114.469 115.028 116.031 109.912C117.594 104.795 115.556 97.0169 114.469 95.3795C113.518 93.8103 109.849 95.7206 109.849 95.7206Z" fill="#263238" stroke="#263238" stroke-width="1.0474" stroke-miterlimit="10" stroke-linecap="round" stroke-linejoin="round"/>
<path d="M122.96 95.0385C122.96 95.0385 124.659 92.3777 123.096 88.4889C121.534 84.6 116.914 82.8262 112.363 85.6234C107.811 88.4206 108.287 92.9235 108.762 94.6974C109.238 96.4713 111.412 99.2685 111.887 99.2685C112.363 99.3367 116.439 100.769 119.224 99.4732C122.009 98.2451 122.96 95.0385 122.96 95.0385Z" fill="#263238" stroke="#263238" stroke-width="1.0474" stroke-miterlimit="10" stroke-linecap="round" stroke-linejoin="round"/>
<path d="M102.92 185.028C102.92 185.028 106.113 190.077 111.751 190.964C117.322 191.85 112.295 186.802 111.344 185.983C110.461 185.233 103.735 183.663 102.92 185.028Z" fill="#737373" stroke="#263238" stroke-width="1.0474" stroke-miterlimit="10" stroke-linecap="round" stroke-linejoin="round"/>
<path d="M132.811 186.392C132.811 186.392 138.993 187.893 138.517 189.257C138.042 190.622 133.015 190.485 130.094 189.735C127.172 188.985 124.387 187.825 124.795 186.597C125.134 185.369 132.811 186.392 132.811 186.392Z" fill="#737373" stroke="#263238" stroke-width="1.0474" stroke-miterlimit="10" stroke-linecap="round" stroke-linejoin="round"/>
<path d="M115.284 105.067C115.284 105.067 107.064 106.295 105.502 109.229C104.007 112.163 106.113 128.128 106.113 128.128C106.113 128.128 102.58 135.905 102.58 140.954C102.513 146.003 104.754 154.804 104.618 156.987C104.415 159.17 102.173 184.277 102.173 184.959C102.173 185.642 106.928 187.143 113.79 187.961C120.651 188.78 133.762 186.324 133.762 186.324C133.762 186.324 133.491 171.519 134.17 162.718C134.849 153.917 133.898 145.934 132.132 142.66C130.433 139.385 122.281 127.514 122.281 127.514C122.281 127.514 126.222 120.35 126.493 117.212C126.765 114.073 125.474 112.436 122.485 108.82C119.496 105.136 115.284 105.067 115.284 105.067Z" fill="#FF7F50" stroke="#263238" stroke-width="1.0474" stroke-miterlimit="10" stroke-linecap="round" stroke-linejoin="round"/>
<path d="M122.282 127.513C122.282 127.513 126.222 120.349 126.494 117.211C126.766 114.073 125.475 112.435 122.486 108.819C122.35 108.615 122.214 108.478 122.01 108.342L121.874 108.41C118.817 113.39 108.695 121.987 105.706 124.511C105.91 126.626 106.114 128.127 106.114 128.127C106.114 128.127 102.581 135.905 102.581 140.954C102.581 142.864 102.853 145.32 103.26 147.776C110.393 143.683 119.972 136.041 125.135 131.743C123.505 129.287 122.282 127.513 122.282 127.513Z" fill="#737373" stroke="#263238" stroke-width="1.0474" stroke-miterlimit="10" stroke-linecap="round" stroke-linejoin="round"/>
<path d="M113.79 99.2001C113.79 99.2001 114.266 103.43 114.198 104.863C114.062 106.227 114.537 109.434 116.915 110.457C119.293 111.481 120.787 110.048 120.787 108.683C120.787 107.251 120.108 105.272 120.108 105.272L120.176 101.451C120.108 101.383 116.032 98.7907 113.79 99.2001Z" fill="white" stroke="#263238" stroke-width="1.0474" stroke-miterlimit="10" stroke-linecap="round" stroke-linejoin="round"/>
<path d="M111.616 96.6756C111.616 96.6756 109.849 95.1065 109.849 97.3579C109.781 99.6093 111.819 100.292 112.295 100.496C112.77 100.633 113.382 100.223 113.382 100.223C113.382 100.223 116.575 102.952 119.088 103.157C121.602 103.362 122.689 102.134 123.232 97.4944C123.844 92.855 119.088 88.1475 119.088 88.1475C119.088 88.1475 114.944 95.6523 111.616 96.6756Z" fill="white" stroke="#263238" stroke-width="1.0474" stroke-miterlimit="10" stroke-linecap="round" stroke-linejoin="round"/>
<path d="M72.7575 140.203C72.7575 140.203 72.6895 138.839 73.1651 137.883C73.5727 136.928 75.8825 136.451 76.4259 136.246C76.9015 136.041 77.1732 136.246 77.0373 136.724C76.9015 137.201 76.2901 137.679 75.8145 137.815C75.339 138.02 75.0672 138.156 74.9314 138.361C74.7955 138.566 74.8634 139.998 74.252 140.544C73.5048 141.158 72.5537 141.022 72.7575 140.203Z" fill="white" stroke="#263238" stroke-width="1.0474" stroke-miterlimit="10" stroke-linecap="round" stroke-linejoin="round"/>
<path d="M124.863 119.667C124.863 119.667 116.711 118.575 113.11 124.306C109.578 130.037 102.784 150.027 90.3525 153.234C77.9206 156.441 74.32 130.72 66.8473 131.47C59.7142 132.152 54.755 131.47 50.4751 139.316C48.1654 143.546 36.7524 189.462 31.3856 189.939C14.1983 191.44 3.125 190.485 3.125 190.485" stroke="#263238" stroke-width="3.1423" stroke-miterlimit="10" stroke-linecap="round" stroke-linejoin="round"/>
<path d="M50.8145 100.974C50.8145 100.974 48.9124 100.223 46.3988 101.724C43.8853 103.225 37.0918 119.736 37.6353 121.51C38.1108 123.283 45.3119 126.558 49.32 127.65C53.3281 128.81 60.5971 130.174 60.5971 130.174C60.5971 130.174 62.8389 133.722 63.5862 133.858C64.3334 133.995 66.847 133.449 66.847 133.449C66.847 133.449 68.2057 134.609 68.7492 133.313C69.2247 132.085 68.2736 130.447 67.1187 129.151C65.9639 127.923 61.2085 127.241 61.2085 127.241L48.301 118.303L53.6678 108.206" fill="#263238"/>
<path d="M50.8145 100.974C50.8145 100.974 48.9124 100.223 46.3988 101.724C43.8853 103.225 37.0918 119.736 37.6353 121.51C38.1108 123.283 45.3119 126.558 49.32 127.65C53.3281 128.81 60.5971 130.174 60.5971 130.174C60.5971 130.174 62.8389 133.722 63.5862 133.858C64.3334 133.995 66.847 133.449 66.847 133.449C66.847 133.449 68.2057 134.609 68.7492 133.313C69.2247 132.085 68.2736 130.447 67.1187 129.151C65.9639 127.923 61.2085 127.241 61.2085 127.241L48.301 118.303L53.6678 108.206" stroke="#263238" stroke-width="1.0474" stroke-miterlimit="10" stroke-linecap="round" stroke-linejoin="round"/>
<path d="M63.6542 133.858C64.4015 133.994 66.9151 133.449 66.9151 133.449C66.9151 133.449 68.2738 134.608 68.8172 133.312C69.2928 132.084 68.3417 130.447 67.1868 129.15C66.0319 127.922 61.2765 127.24 61.2765 127.24L48.369 118.303L50.2712 114.687C45.4479 111.685 42.255 111.889 40.4887 112.503C38.7224 116.665 37.4316 120.622 37.6354 121.441C38.111 123.215 45.312 126.49 49.3201 127.581C53.3282 128.741 60.5972 130.106 60.5972 130.106C60.5972 130.106 62.907 133.722 63.6542 133.858Z" fill="white" stroke="#263238" stroke-width="1.0474" stroke-miterlimit="10" stroke-linecap="round" stroke-linejoin="round"/>
<path d="M144.428 119.94C143.884 114.005 141.031 109.092 137.635 107.182L137.499 105.954L128.599 106.773C123.64 107.25 120.175 114.141 120.923 122.124C121.67 130.174 126.29 136.246 131.317 135.837L140.216 135.018L140.08 133.79C143.069 131.266 144.971 125.876 144.428 119.94Z" fill="#263238" stroke="#263238" stroke-width="1.0474" stroke-miterlimit="10" stroke-linecap="round" stroke-linejoin="round"/>
<path d="M148.436 119.6C147.824 113.323 145.039 108.206 141.439 106.16L141.303 104.863L137.498 105.204C132.267 105.682 128.599 112.914 129.414 121.374C130.162 129.834 135.053 136.247 140.352 135.769L144.156 135.428L144.02 134.132C147.213 131.403 149.047 125.809 148.436 119.6Z" fill="white" stroke="#263238" stroke-width="1.0474" stroke-miterlimit="10" stroke-linecap="round" stroke-linejoin="round"/>
<path d="M152.241 119.259C152.988 127.718 149.388 134.95 144.157 135.428C138.926 135.906 134.034 129.492 133.219 121.032C132.472 112.572 136.072 105.34 141.303 104.863C146.602 104.385 151.494 110.799 152.241 119.259Z" fill="white" stroke="#263238" stroke-width="1.0474" stroke-miterlimit="10" stroke-linecap="round" stroke-linejoin="round"/>
<path d="M156.385 114.278L141.643 115.643C140.76 115.711 140.013 115.097 139.945 114.21C139.877 113.323 140.488 112.573 141.371 112.504L156.113 111.14C156.996 111.072 157.743 111.686 157.811 112.573C157.879 113.46 157.2 114.21 156.385 114.278Z" fill="#737373" stroke="#263238" stroke-width="1.0474" stroke-miterlimit="10" stroke-linecap="round" stroke-linejoin="round"/>
<path d="M157.403 126.013L142.662 127.377C141.778 127.445 141.031 126.831 140.963 125.944C140.895 125.058 141.507 124.307 142.39 124.239L157.131 122.874C158.015 122.806 158.762 123.42 158.83 124.307C158.966 125.194 158.286 125.944 157.403 126.013Z" fill="#737373" stroke="#263238" stroke-width="1.0474" stroke-miterlimit="10" stroke-linecap="round" stroke-linejoin="round"/>
<path d="M110.188 106.159C110.188 106.159 106.656 106.841 104.958 108.888C103.259 111.003 99.8624 126.695 100.61 128.537C101.425 130.379 114.129 132.631 118.069 132.972C122.009 133.313 127.512 132.562 127.512 132.562C127.512 132.562 130.908 132.494 131.859 132.29C132.811 132.153 134.509 131.198 134.509 130.857C134.509 130.516 134.373 129.697 133.082 129.561C131.792 129.492 129.074 128.537 128.734 128.537C128.395 128.537 131.248 128.06 131.248 128.06C131.248 128.06 131.452 127.377 130.025 127.377C128.599 127.377 127.376 127.309 126.832 128.06C126.289 128.81 125.881 129.97 125.881 129.97C125.881 129.97 118.069 130.516 113.789 128.401C109.509 126.286 108.15 125.603 108.15 125.603L111.207 113.323" fill="#FF7F50"/>
<path d="M110.188 106.159C110.188 106.159 106.656 106.841 104.958 108.888C103.259 111.003 99.8624 126.695 100.61 128.537C101.425 130.379 114.129 132.631 118.069 132.972C122.009 133.313 127.512 132.562 127.512 132.562C127.512 132.562 130.908 132.494 131.859 132.29C132.811 132.153 134.509 131.198 134.509 130.857C134.509 130.516 134.373 129.697 133.082 129.561C131.792 129.492 129.074 128.537 128.734 128.537C128.395 128.537 131.248 128.06 131.248 128.06C131.248 128.06 131.452 127.377 130.025 127.377C128.599 127.377 127.376 127.309 126.832 128.06C126.289 128.81 125.881 129.97 125.881 129.97C125.881 129.97 118.069 130.516 113.789 128.401C109.509 126.286 108.15 125.603 108.15 125.603L111.207 113.323" stroke="#263238" stroke-width="1.0474" stroke-miterlimit="10" stroke-linecap="round" stroke-linejoin="round"/>
<path d="M131.928 132.358C132.879 132.222 134.577 131.266 134.577 130.925C134.577 130.584 134.441 129.765 133.151 129.629C131.86 129.561 129.143 128.606 128.803 128.606C128.463 128.606 131.316 128.128 131.316 128.128C131.316 128.128 131.52 127.446 130.094 127.446C128.667 127.446 127.444 127.378 126.901 128.128C126.357 128.879 125.95 130.038 125.95 130.038C125.95 130.038 118.137 130.584 113.857 128.469C109.577 126.354 108.219 125.672 108.219 125.672L110.053 118.167C107.268 116.939 104.347 116.462 102.444 116.257C101.154 121.374 100.135 127.446 100.61 128.537C101.425 130.38 114.129 132.631 118.069 132.972C122.009 133.313 127.512 132.563 127.512 132.563C127.512 132.563 130.977 132.495 131.928 132.358Z" fill="white" stroke="#263238" stroke-width="1.0474" stroke-miterlimit="10" stroke-linecap="round" stroke-linejoin="round"/>
<path d="M74.5237 138.839C74.5237 138.839 71.8743 140.818 72.2819 142.114C72.6895 143.41 74.8634 140.75 75.4069 139.931C75.9503 139.18 75.5427 138.02 74.5237 138.839Z" fill="white" stroke="#263238" stroke-width="1.0474" stroke-miterlimit="10" stroke-linecap="round" stroke-linejoin="round"/>
<path d="M74.9993 140.613C74.9993 140.613 72.3499 142.591 72.7575 143.887C73.1651 145.184 75.339 142.523 75.8824 141.704C76.4939 140.954 76.0183 139.794 74.9993 140.613Z" fill="white" stroke="#263238" stroke-width="1.0474" stroke-miterlimit="10" stroke-linecap="round" stroke-linejoin="round"/>
<path d="M76.2903 141.773C76.2903 141.773 73.6409 143.752 74.0485 145.048C74.4561 146.344 76.63 143.683 77.1735 142.865C77.7169 142.114 77.3093 140.886 76.2903 141.773Z" fill="white" stroke="#263238" stroke-width="1.0474" stroke-miterlimit="10" stroke-linecap="round" stroke-linejoin="round"/>
<path d="M77.3093 142.728C77.3093 142.728 75.0674 144.161 75.4071 145.252C75.8147 146.344 77.6489 144.297 78.1245 143.683C78.6 143.001 78.1924 142.046 77.3093 142.728Z" fill="white" stroke="#263238" stroke-width="1.0474" stroke-miterlimit="10" stroke-linecap="round" stroke-linejoin="round"/>
</g>
<defs>
<clipPath id="clip0_1660_2257">
<rect width="318" height="213" fill="white"/>
</clipPath>
</defs>
</svg>
